<svg width="400" height="400" xmlns="http://www.w3.org/2000/svg">

 <g>
  <title>Layer 1</title>
  <ellipse stroke-width="20" ry="165" rx="165" id="svg_1" cy="200" cx="200" stroke="#7f0000" fill="none"/>
  <g id="svg_5">
   <path id="svg_2" d="m198.5,325c-40.60773,0 -73.5,-32.89226 -73.5,-73.5c0,-40.60773 32.89226,-73.5 73.5,-73.5c40.60773,0 73.5,32.89226 73.5,73.5c0,40.60773 -32.89226,73.5 -73.5,73.5z" opacity="undefined" stroke-width="20" fill="#7f0000"/>
   <path id="svg_4" d="m125,252.60001c4.83333,-55.26667 22.41667,-59.28334 38.5,-92.175c16.08333,-32.89167 20.66667,-76.65834 41.5,-81.425c20.66667,1.66667 26.58333,56.83333 32.75,86.75c6.16667,29.91667 33.58333,34.58333 28.25,81.25" opacity="NaN" stroke-width="20" fill="#7f0000"/>
   <path id="svg_6" d="m198,308.60001l53,-31.60001l-53,31.60001z" opacity="NaN" stroke-width="20" fill="#7f0000"/>
  </g>
  <path opacity="0.85" id="svg_8" d="m203,314.60001c27,-8.83333 47,-24.66667 54,-48.5" stroke-width="4" stroke="#ffffff" fill="#ffffff"/>
 </g>
</svg>